<svg xmlns="http://www.w3.org/2000/svg" viewBox="2268 1041 30 30">
  <defs>
    <style>
      .cls-1, .cls-4 {
        fill: #333;
      }

      .cls-2 {
        fill: none;
      }

      .cls-3, .cls-4 {
        stroke: none;
      }
    </style>
  </defs>
  <g id="FB_-_icon" data-name="FB - icon" transform="translate(2128 -2336)">
    <g id="icon-facebook" transform="translate(150.328 3383.393)">
      <path id="Path_12" data-name="Path 12" class="cls-1" d="M31.069,0,28.828,0a3.936,3.936,0,0,0-4.145,4.253V6.215H22.429a.352.352,0,0,0-.352.353V9.409a.352.352,0,0,0,.352.352h2.253v7.17a.352.352,0,0,0,.352.352h2.94a.352.352,0,0,0,.352-.352V9.761h2.635a.352.352,0,0,0,.352-.352V6.567a.353.353,0,0,0-.353-.353H28.328V4.552c0-.8.19-1.2,1.231-1.2h1.51a.352.352,0,0,0,.352-.352V.356A.353.353,0,0,0,31.069,0Z" transform="translate(-22.077 0)"/>
    </g>
    <g id="Path_27" data-name="Path 27" class="cls-2" transform="translate(140 3377)">
      <path class="cls-3" d="M15,0A15,15,0,1,1,0,15,15,15,0,0,1,15,0Z"/>
      <path class="cls-4" d="M 15 27 C 18.20532035827637 27 21.21878051757813 25.75177955627441 23.48527908325195 23.48527908325195 C 25.75177955627441 21.21878051757813 27 18.20532035827637 27 15 C 27 11.79467964172363 25.75177955627441 8.781220436096191 23.48527908325195 6.51471996307373 C 21.21878051757813 4.248219966888428 18.20532035827637 3 15 3 C 11.79467964172363 3 8.781220436096191 4.248219966888428 6.51471996307373 6.51471996307373 C 4.248219966888428 8.781220436096191 3 11.79467964172363 3 15 C 3 18.20532035827637 4.248219966888428 21.21878051757813 6.51471996307373 23.48527908325195 C 8.781220436096191 25.75177955627441 11.79467964172363 27 15 27 M 15 30 C 6.7157301902771 30 -1.77635683940025e-15 23.28426933288574 -1.77635683940025e-15 15 C -1.77635683940025e-15 6.7157301902771 6.7157301902771 -1.77635683940025e-15 15 -1.77635683940025e-15 C 23.28426933288574 -1.77635683940025e-15 30 6.7157301902771 30 15 C 30 23.28426933288574 23.28426933288574 30 15 30 Z"/>
    </g>
  </g>
</svg>
