<svg xmlns="http://www.w3.org/2000/svg" viewBox="0 0 805.43 264.32"><title>Recurso 2</title><g id="Capa_2" data-name="Capa 2"><g id="Capa_1-2" data-name="Capa 1"><path d="M801.32,147c-2-3-10,1-10,1s-27,22-58,22-38-18-38-18-3-2-7,2-19,20-24,16-4-11,9-21,22-14,25-8,1,9,1,9,0,3,4,2,3-6,3-6,1-15-12-20-38-1-38-1-26,5-51,26c-26,18-30,20-30,20s-22,14-34-10-18-33-18-33-9-21-29,0c-26,21-45,37-45,37s-12,9-12,0V138s1-11-9-11-27,16-27,16-13,17-14,18-5,3-3-8,4-18,1-19-4,1-4,1l-2,8-4-1-87,32s-57,20-51-15c2-3,8-9,8-9s46-54,59-100,2-47,2-47-11-13-24,15-44,108-44,108l-8,27s-24,30-72,28-81-39-81-39-3-5-10,2-39,36-48,29,7-25,7-25,21-25,42-26,11,11,15,16c0,0,1,6,7,6s7-9,7-9,1-26-25-28-48,22-48,22-38,32-19,55,62-22,62-22,3-4,6-1,31,32,85,30,72-25,72-25-1,24,23,25,83-23,83-23l42-18-3,28s1,7,6,1,38-37,38-37,11-8,11,0-5,39,8,38,64-45,64-45,10-8,15,0,20,49,40,51,66-37,66-37,35-28,63-17c0,1,0,2-7,4-9,4-36,26-23,39s35-15,35-15,2-2,4,3,15,14,38,14,51-10,64-22C801.32,151,803.32,150,801.32,147Zm-507-131c9-13,8,0,8,0s0,7-11,42-46,78-46,78C245.32,122,285.32,34,294.32,16Z"/><path d="M415.47,228.66,411,231.43a18.64,18.64,0,0,0-15.73-7.65,18.14,18.14,0,0,0-13.22,5.12,16.7,16.7,0,0,0-5.27,12.44,17.71,17.71,0,0,0,2.42,9,16.94,16.94,0,0,0,6.65,6.52A20.09,20.09,0,0,0,411,251.5l4.45,2.93a21.14,21.14,0,0,1-8.4,7.3,26.79,26.79,0,0,1-12,2.59q-10.33,0-17.15-6.57a21.38,21.38,0,0,1-6.81-16A22.78,22.78,0,0,1,374.3,230a22.43,22.43,0,0,1,8.75-8.48,25.57,25.57,0,0,1,12.46-3,26.69,26.69,0,0,1,8.36,1.32,23.38,23.38,0,0,1,6.83,3.44A18.83,18.83,0,0,1,415.47,228.66Z"/><path d="M446.88,218.49a21.62,21.62,0,0,1,16.7,7.29,23.39,23.39,0,0,1-.35,31.71,21.32,21.32,0,0,1-16.35,6.83q-10,0-16.4-6.83a23.35,23.35,0,0,1-.34-31.67A21.59,21.59,0,0,1,446.88,218.49Zm0,5.49a16.18,16.18,0,0,0-12,5.16,17.31,17.31,0,0,0-5,12.51,17.68,17.68,0,0,0,2.29,8.81,16.26,16.26,0,0,0,6.19,6.31,17.63,17.63,0,0,0,17.13,0,16.19,16.19,0,0,0,6.19-6.31,17.69,17.69,0,0,0,2.3-8.81,17.28,17.28,0,0,0-5.05-12.51A16.2,16.2,0,0,0,446.86,224Z"/><path d="M480,219.61h5.61v7.81a23.54,23.54,0,0,1,7.45-6.71,18.36,18.36,0,0,1,8.9-2.22A15.47,15.47,0,0,1,510.6,221a14.79,14.79,0,0,1,5.59,6.69q1.81,4.22,1.81,13.1V263.2h-5.61V242.41c0-5-.21-8.38-.63-10.06a11,11,0,0,0-3.74-6.51,11.25,11.25,0,0,0-7.21-2.18,13.87,13.87,0,0,0-9.12,3.36,15.8,15.8,0,0,0-5.31,8.34q-.79,3.24-.8,11.85v16H480Z"/><path d="M551.93,224.38l-3.6,3.72q-4.5-4.36-8.8-4.36a6.66,6.66,0,0,0-4.68,1.8,5.56,5.56,0,0,0-2,4.21,6.23,6.23,0,0,0,1.61,4q1.61,2,6.74,4.61,6.27,3.24,8.52,6.25a11.38,11.38,0,0,1,2.2,6.85,12.3,12.3,0,0,1-3.77,9.1,12.88,12.88,0,0,1-9.43,3.72,16.42,16.42,0,0,1-7.2-1.64,15.52,15.52,0,0,1-5.68-4.53l3.53-4q4.29,4.84,9.11,4.84a8.25,8.25,0,0,0,5.75-2.16,6.71,6.71,0,0,0,2.36-5.09,6.51,6.51,0,0,0-1.56-4.28c-1.05-1.23-3.4-2.78-7.07-4.65q-5.89-3-8-6a11.33,11.33,0,0,1-2.13-6.77,11,11,0,0,1,3.39-8.26,11.82,11.82,0,0,1,8.57-3.28Q545.84,218.49,551.93,224.38Z"/><path d="M604.18,228.66l-4.45,2.77A18.63,18.63,0,0,0,584,223.78a18.16,18.16,0,0,0-13.22,5.12,16.69,16.69,0,0,0-5.26,12.44,17.61,17.61,0,0,0,2.42,9,16.92,16.92,0,0,0,6.64,6.52,20.09,20.09,0,0,0,25.15-5.33l4.45,2.93a21,21,0,0,1-8.39,7.3,26.85,26.85,0,0,1-12,2.59q-10.35,0-17.15-6.57a21.38,21.38,0,0,1-6.81-16A22.87,22.87,0,0,1,563,230a22.39,22.39,0,0,1,8.76-8.48,25.51,25.51,0,0,1,12.46-3,26.62,26.62,0,0,1,8.35,1.32,23.38,23.38,0,0,1,6.83,3.44A18.83,18.83,0,0,1,604.18,228.66Z"/><path d="M616.9,201.66a4.42,4.42,0,0,1,3.27,1.36,4.51,4.51,0,0,1,1.36,3.29,4.64,4.64,0,0,1-4.63,4.6,4.64,4.64,0,0,1-4.59-4.6,4.47,4.47,0,0,1,1.36-3.29A4.38,4.38,0,0,1,616.9,201.66Zm-2.78,18h5.61V263.2h-5.61Z"/><path d="M668.08,248.74l4.73,2.48a25.72,25.72,0,0,1-5.37,7.37,21.25,21.25,0,0,1-6.86,4.27,23.79,23.79,0,0,1-8.62,1.46q-10.66,0-16.68-7a23.59,23.59,0,0,1-6-15.8,23.35,23.35,0,0,1,5.09-14.79,20.84,20.84,0,0,1,17.29-8.25,21.51,21.51,0,0,1,17.8,8.45q4.74,6,4.81,14.91H635a17.76,17.76,0,0,0,4.85,12.45,15.48,15.48,0,0,0,11.6,4.85A18.68,18.68,0,0,0,658,258a17,17,0,0,0,5.35-3.08A26.09,26.09,0,0,0,668.08,248.74Zm0-11.74a18.49,18.49,0,0,0-3.26-7.17,15.53,15.53,0,0,0-5.68-4.33,17.34,17.34,0,0,0-7.42-1.64,16,16,0,0,0-11,4.12q-3.37,3-5.1,9Z"/><path d="M684.71,219.61h5.61v7.81a23.54,23.54,0,0,1,7.45-6.71,18.36,18.36,0,0,1,8.9-2.22,15.47,15.47,0,0,1,8.67,2.48,14.79,14.79,0,0,1,5.59,6.69q1.8,4.22,1.81,13.1V263.2h-5.61V242.41c0-5-.21-8.38-.63-10.06a11,11,0,0,0-3.74-6.51,11.25,11.25,0,0,0-7.21-2.18,13.87,13.87,0,0,0-9.12,3.36,15.8,15.8,0,0,0-5.31,8.34q-.79,3.24-.8,11.85v16h-5.61Z"/><path d="M739.64,203.42h5.61v16.19h8.9v4.85h-8.9V263.2h-5.61V224.46H732v-4.85h7.65Z"/><path d="M799.26,248.74l4.73,2.48a25.72,25.72,0,0,1-5.37,7.37,21.36,21.36,0,0,1-6.86,4.27,23.83,23.83,0,0,1-8.62,1.46q-10.68,0-16.69-7a23.9,23.9,0,0,1-.92-30.59,20.83,20.83,0,0,1,17.29-8.25,21.51,21.51,0,0,1,17.8,8.45q4.74,6,4.81,14.91H766.21a17.72,17.72,0,0,0,4.85,12.45,15.46,15.46,0,0,0,11.59,4.85,18.68,18.68,0,0,0,6.48-1.15,17,17,0,0,0,5.36-3.08A26.09,26.09,0,0,0,799.26,248.74Zm0-11.74a18.64,18.64,0,0,0-3.27-7.17,15.41,15.41,0,0,0-5.67-4.33,17.34,17.34,0,0,0-7.42-1.64,16,16,0,0,0-11,4.12q-3.36,3-5.09,9Z"/></g></g></svg>