<svg xmlns="http://www.w3.org/2000/svg" viewBox="0 0 802.1 263.78"><title>Recurso 1</title><g id="Capa_2" data-name="Capa 2"><g id="Capa_1-2" data-name="Capa 1"><path d="M801.32,147c-2-3-10,1-10,1s-27,22-58,22-38-18-38-18-3-2-7,2-19,20-24,16-4-11,9-21,22-14,25-8,1,9,1,9,0,3,4,2,3-6,3-6,1-15-12-20-38-1-38-1-26,5-51,26c-26,18-30,20-30,20s-22,14-34-10-18-33-18-33-9-21-29,0c-26,21-45,37-45,37s-12,9-12,0V138s1-11-9-11-27,16-27,16-13,17-14,18-5,3-3-8,4-18,1-19-4,1-4,1l-2,8-4-1-87,32s-57,20-51-15c2-3,8-9,8-9s46-54,59-100,2-47,2-47-11-13-24,15-44,108-44,108l-8,27s-24,30-72,28-81-39-81-39-3-5-10,2-39,36-48,29,7-25,7-25,21-25,42-26,11,11,15,16c0,0,1,6,7,6s7-9,7-9,1-26-25-28-48,22-48,22-38,32-19,55,62-22,62-22,3-4,6-1,31,32,85,30,72-25,72-25-1,24,23,25,83-23,83-23l42-18-3,28s1,7,6,1,38-37,38-37,11-8,11,0-5,39,8,38,64-45,64-45,10-8,15,0,20,49,40,51,66-37,66-37,35-28,63-17c0,1,0,2-7,4-9,4-36,26-23,39s35-15,35-15,2-2,4,3,15,14,38,14,51-10,64-22C801.32,151,803.32,150,801.32,147Zm-507-131c9-13,8,0,8,0s0,7-11,42-46,78-46,78C245.32,122,285.32,34,294.32,16Z"/><path d="M438.56,226.5a.53.53,0,0,1-.36.16,2.4,2.4,0,0,1-1-.59,12,12,0,0,0-2.15-1.3,20.4,20.4,0,0,0-3.54-1.3,19.11,19.11,0,0,0-5.13-.6,19.8,19.8,0,0,0-7.63,1.4,15.65,15.65,0,0,0-5.69,4,17.7,17.7,0,0,0-3.57,6.31,26.42,26.42,0,0,0-1.23,8.33,26.81,26.81,0,0,0,1.23,8.48,17.54,17.54,0,0,0,3.52,6.22,14.92,14.92,0,0,0,5.5,3.86,18.59,18.59,0,0,0,7.15,1.32,20.63,20.63,0,0,0,5.92-.74,20.2,20.2,0,0,0,4-1.65,14.22,14.22,0,0,0,2.37-1.65c.54-.5.9-.74,1.08-.74a.53.53,0,0,1,.36.16l.18.17a9.1,9.1,0,0,1-2,1.83,16.33,16.33,0,0,1-3.1,1.69,22.75,22.75,0,0,1-4,1.26,22.3,22.3,0,0,1-4.8.5,19.89,19.89,0,0,1-7.67-1.41,15.82,15.82,0,0,1-5.81-4.06,18.4,18.4,0,0,1-3.7-6.49,27.43,27.43,0,0,1-1.3-8.75,26.82,26.82,0,0,1,1.3-8.55,18.51,18.51,0,0,1,3.77-6.58,16.79,16.79,0,0,1,6-4.23,20.74,20.74,0,0,1,8.1-1.5,20.1,20.1,0,0,1,7.1,1.17,18.4,18.4,0,0,1,5.36,3Z"/><path d="M472.27,222.05a21.13,21.13,0,0,1,8.21,1.5,16.53,16.53,0,0,1,6,4.23,18.09,18.09,0,0,1,3.7,6.58,27.42,27.42,0,0,1,1.25,8.55,27,27,0,0,1-1.25,8.52,18.12,18.12,0,0,1-3.7,6.53,16.09,16.09,0,0,1-6,4.19,23.72,23.72,0,0,1-16.44,0,16.06,16.06,0,0,1-6-4.19,18,18,0,0,1-3.7-6.53,27,27,0,0,1-1.26-8.52,27.41,27.41,0,0,1,1.26-8.55,17.94,17.94,0,0,1,3.7-6.58,16.5,16.5,0,0,1,6-4.23A21.09,21.09,0,0,1,472.27,222.05Zm0,40.74a20.12,20.12,0,0,0,7.89-1.44,15.39,15.39,0,0,0,5.68-4,17.4,17.4,0,0,0,3.4-6.27,29.35,29.35,0,0,0,0-16.27,17.68,17.68,0,0,0-3.4-6.33,15.32,15.32,0,0,0-5.68-4.11,22.1,22.1,0,0,0-15.8,0,15.38,15.38,0,0,0-5.65,4.11,17.54,17.54,0,0,0-3.41,6.33,29.6,29.6,0,0,0,0,16.27,17.27,17.27,0,0,0,3.41,6.27,15.44,15.44,0,0,0,5.65,4A20.05,20.05,0,0,0,472.27,262.79Z"/><path d="M502.1,263.12V222.71h.25c.37,0,.56.22.56.66l.12,7.79a24,24,0,0,1,3.09-3.75,20.49,20.49,0,0,1,3.69-2.89,17.71,17.71,0,0,1,4.16-1.84,16.23,16.23,0,0,1,4.52-.63q6.59,0,9.83,4t3.25,11.17v25.9h-1v-25.9a23.16,23.16,0,0,0-.72-6,12.21,12.21,0,0,0-2.24-4.52,9.84,9.84,0,0,0-3.8-2.82,13.52,13.52,0,0,0-5.35-1,15.42,15.42,0,0,0-8.55,2.54,23.76,23.76,0,0,0-6.87,7v30.72Z"/><path d="M567.51,226.25a.53.53,0,0,1-.45.25,2,2,0,0,1-1-.56,12.7,12.7,0,0,0-2-1.23,17.82,17.82,0,0,0-3.34-1.26,18.2,18.2,0,0,0-5-.58,15.84,15.84,0,0,0-5.09.78,13.46,13.46,0,0,0-4,2.09,9.73,9.73,0,0,0-2.58,3,7.33,7.33,0,0,0-.92,3.54,5.8,5.8,0,0,0,1.13,3.65,9.31,9.31,0,0,0,2.93,2.48,21.38,21.38,0,0,0,4.15,1.71c1.55.47,3.14.93,4.75,1.38s3.2.93,4.76,1.44a18.37,18.37,0,0,1,4.14,1.92,9.82,9.82,0,0,1,2.94,2.83,7.23,7.23,0,0,1,1.12,4.14,11.47,11.47,0,0,1-1,4.66,10.85,10.85,0,0,1-2.8,3.79,13.63,13.63,0,0,1-4.51,2.56,18.17,18.17,0,0,1-6.08.95,23.32,23.32,0,0,1-4.23-.35,19.42,19.42,0,0,1-3.46-1,15.34,15.34,0,0,1-3-1.53,30.18,30.18,0,0,1-2.71-2l.27-.24a1.52,1.52,0,0,1,.22-.19.62.62,0,0,1,.32-.06,2.3,2.3,0,0,1,1.16.7,16.29,16.29,0,0,0,2.27,1.57,17.68,17.68,0,0,0,3.68,1.56,18.09,18.09,0,0,0,5.44.71,17.28,17.28,0,0,0,5.72-.87,12.43,12.43,0,0,0,4.19-2.37,9.9,9.9,0,0,0,2.58-3.51,10.68,10.68,0,0,0,.88-4.31,6.45,6.45,0,0,0-1.13-3.89,9.31,9.31,0,0,0-2.93-2.62,19.23,19.23,0,0,0-4.15-1.8c-1.55-.48-3.14-.94-4.75-1.38s-3.2-.91-4.76-1.4a19.69,19.69,0,0,1-4.14-1.84,9.32,9.32,0,0,1-2.94-2.7,6.79,6.79,0,0,1-1.12-4,8.1,8.1,0,0,1,1-3.85,10.56,10.56,0,0,1,2.78-3.26,14.34,14.34,0,0,1,4.29-2.27,17.09,17.09,0,0,1,5.49-.84,21,21,0,0,1,6.55.92,17.84,17.84,0,0,1,5.47,3Z"/><path d="M610.46,226.5a.53.53,0,0,1-.36.16,2.4,2.4,0,0,1-1-.59,12,12,0,0,0-2.15-1.3,20.4,20.4,0,0,0-3.54-1.3,19.11,19.11,0,0,0-5.13-.6,19.73,19.73,0,0,0-7.63,1.4,15.65,15.65,0,0,0-5.69,4,17.7,17.7,0,0,0-3.57,6.31,26.42,26.42,0,0,0-1.23,8.33,26.81,26.81,0,0,0,1.23,8.48,17.54,17.54,0,0,0,3.52,6.22,14.92,14.92,0,0,0,5.5,3.86,18.59,18.59,0,0,0,7.15,1.32,20.63,20.63,0,0,0,5.92-.74,20.2,20.2,0,0,0,4-1.65,14.22,14.22,0,0,0,2.37-1.65c.54-.5.9-.74,1.08-.74a.53.53,0,0,1,.36.16l.18.17a9.1,9.1,0,0,1-2,1.83,16.33,16.33,0,0,1-3.1,1.69,22.75,22.75,0,0,1-4,1.26,22.3,22.3,0,0,1-4.8.5,19.89,19.89,0,0,1-7.67-1.41,15.82,15.82,0,0,1-5.81-4.06,18.4,18.4,0,0,1-3.7-6.49,27.43,27.43,0,0,1-1.3-8.75,26.82,26.82,0,0,1,1.3-8.55,18.51,18.51,0,0,1,3.77-6.58,16.79,16.79,0,0,1,6-4.23,20.74,20.74,0,0,1,8.1-1.5,20.1,20.1,0,0,1,7.1,1.17,18.4,18.4,0,0,1,5.36,3Z"/><path d="M627,207.69a2,2,0,0,1-.78,1.55,2.61,2.61,0,0,1-1.73.68,2.53,2.53,0,0,1-1.77-.68,2.06,2.06,0,0,1-.74-1.55,2.13,2.13,0,0,1,.74-1.62,2.49,2.49,0,0,1,1.77-.69,2.58,2.58,0,0,1,1.73.69A2.07,2.07,0,0,1,627,207.69Zm-2,15v40.41h-1.08V222.71Z"/><path d="M657.21,222.05a23.6,23.6,0,0,1,7.43,1.13,17.37,17.37,0,0,1,6,3.36,15.78,15.78,0,0,1,4,5.46,18.17,18.17,0,0,1,1.44,7.45.33.33,0,0,1-.18.31.84.84,0,0,1-.44.1h-39a6.32,6.32,0,0,0-.11,1.11v1.12a24.38,24.38,0,0,0,1.5,8.88,17.52,17.52,0,0,0,4.26,6.48,18.26,18.26,0,0,0,6.66,4,26,26,0,0,0,8.65,1.36,32,32,0,0,0,7.36-.74,31.11,31.11,0,0,0,5.11-1.65,20.27,20.27,0,0,0,3.1-1.65,3.62,3.62,0,0,1,1.37-.74.65.65,0,0,1,.41.16l.21.17a12,12,0,0,1-2.61,1.79,25.58,25.58,0,0,1-4.08,1.71,36.76,36.76,0,0,1-5.14,1.28,32.74,32.74,0,0,1-5.73.5,27.8,27.8,0,0,1-9.35-1.47,19,19,0,0,1-7-4.23,18.6,18.6,0,0,1-4.42-6.76,25,25,0,0,1-1.55-9.07,21.46,21.46,0,0,1,1.5-8.15,17.59,17.59,0,0,1,4.34-6.33,19.9,19.9,0,0,1,6.94-4.1A27.6,27.6,0,0,1,657.21,222.05Zm0,.82a26.42,26.42,0,0,0-8.19,1.18,19.27,19.27,0,0,0-6.27,3.29,16.11,16.11,0,0,0-4.21,5.14,19.58,19.58,0,0,0-2,6.64H675a17.1,17.1,0,0,0-1.34-7,14.21,14.21,0,0,0-3.75-5.09,16.47,16.47,0,0,0-5.65-3.14A22.45,22.45,0,0,0,657.21,222.87Z"/><path d="M685.14,263.12V222.71h.27c.41,0,.62.22.62.66l.14,7.79a23.94,23.94,0,0,1,3.43-3.75,22.19,22.19,0,0,1,4.1-2.89,20.72,20.72,0,0,1,4.62-1.84,19.84,19.84,0,0,1,5-.63q7.3,0,10.92,4t3.61,11.17v25.9h-1.08v-25.9a21.09,21.09,0,0,0-.8-6,11.76,11.76,0,0,0-2.49-4.52,10.89,10.89,0,0,0-4.22-2.82,16.51,16.51,0,0,0-5.94-1,18.49,18.49,0,0,0-9.5,2.54,25.1,25.1,0,0,0-7.63,7v30.72Z"/><path d="M741.3,263.78a9.15,9.15,0,0,1-6.82-2.51c-1.65-1.67-2.48-4.44-2.48-8.28V213.88h-8.19c-.47,0-.71-.18-.71-.53V213l8.9-.22.4-21.05a1.14,1.14,0,0,1,.13-.51.4.4,0,0,1,.38-.24h.3v21.8h16.88v1.07H733.21V253a14.05,14.05,0,0,0,.63,4.51,8,8,0,0,0,1.75,3,6.77,6.77,0,0,0,2.58,1.69,9.18,9.18,0,0,0,3.13.53A9.35,9.35,0,0,0,745,262a14.67,14.67,0,0,0,2.7-1.5,12.9,12.9,0,0,0,1.79-1.5q.69-.69,1-.69a.57.57,0,0,1,.4.21l.2.22a11.08,11.08,0,0,1-1.84,2,11.88,11.88,0,0,1-2.37,1.6,12.85,12.85,0,0,1-2.73,1.05A11.34,11.34,0,0,1,741.3,263.78Z"/><path d="M783.5,222.05a22.91,22.91,0,0,1,7.32,1.13,17,17,0,0,1,5.92,3.36,15.63,15.63,0,0,1,3.94,5.46,18.34,18.34,0,0,1,1.42,7.45.34.34,0,0,1-.17.31.87.87,0,0,1-.44.1H763.07A6.27,6.27,0,0,0,763,241v1.12a24.82,24.82,0,0,0,1.47,8.88,17.52,17.52,0,0,0,4.2,6.48,17.88,17.88,0,0,0,6.55,4,25.3,25.3,0,0,0,8.52,1.36,31,31,0,0,0,7.24-.74,30.57,30.57,0,0,0,5-1.65,19.82,19.82,0,0,0,3-1.65,3.46,3.46,0,0,1,1.35-.74.62.62,0,0,1,.4.16l.21.17a11.86,11.86,0,0,1-2.57,1.79,25.16,25.16,0,0,1-4,1.71,35.43,35.43,0,0,1-5,1.28,31.72,31.72,0,0,1-5.64.5,26.91,26.91,0,0,1-9.2-1.47,18.13,18.13,0,0,1-11.24-11,25.48,25.48,0,0,1-1.52-9.07,21.85,21.85,0,0,1,1.47-8.15,17.67,17.67,0,0,1,4.27-6.33,19.45,19.45,0,0,1,6.84-4.1A26.7,26.7,0,0,1,783.5,222.05Zm0,.82a25.56,25.56,0,0,0-8,1.18,19,19,0,0,0-6.18,3.29,16,16,0,0,0-4.14,5.14,19.77,19.77,0,0,0-2,6.64H801a17.27,17.27,0,0,0-1.33-7,14,14,0,0,0-3.68-5.09,16.19,16.19,0,0,0-5.57-3.14A21.71,21.71,0,0,0,783.5,222.87Z"/></g></g></svg>